<svg preserveAspectRatio="none" width="100%" height="100%" overflow="visible" style="display: block;" viewBox="0 0 16 28" fill="none" xmlns="http://www.w3.org/2000/svg">
<g id="Frame 2">
<path id="Vector" d="M4.12679 5.35175C4.15701 5.34825 4.19027 5.35016 4.22354 5.35175C4.07582 5.61969 3.9806 5.96352 3.95649 6.36734C3.68944 10.9145 3.10163 15.7874 4.27604 20.346C4.35417 20.6485 4.45916 20.9314 4.58276 21.1993C4.21561 21.2206 3.8454 21.2752 3.48618 21.3962L1.3925 22.0937C0.637745 20.9825 0.419832 19.8234 0.753721 18.537L2.15276 17.9037C2.24798 17.8605 2.31299 17.7662 2.32276 17.657C2.32276 17.657 3.05859 10.223 3.42727 6.50449C3.4639 6.13908 3.56065 5.77843 3.71996 5.57842C3.82007 5.45397 3.93604 5.36635 4.12679 5.35175ZM5.15227 1.82304C5.26977 1.8513 5.32409 1.89257 5.39856 1.98019C5.37323 2.04972 5.34607 2.11607 5.32532 2.19194C5.18736 2.68307 5.12358 3.35135 5.17271 4.25075L5.19988 4.74347C5.05979 4.72188 4.91391 4.73839 4.78633 4.79649C4.76436 4.80633 4.7436 4.82093 4.72132 4.833C4.60382 4.79839 4.48449 4.77331 4.36851 4.77172L4.69599 2.38274C4.73536 2.0967 4.86599 1.92304 4.97891 1.85987C5.03599 1.82812 5.09153 1.80812 5.15227 1.82304ZM8.06907 1.06396L9.23737 11.3967C9.26911 11.8155 9.87463 11.7409 9.81267 11.3272L8.8574 2.90975C8.81467 2.52402 8.98772 2.03321 9.27247 2.00844C9.53464 1.98527 9.56455 2.21829 9.58866 2.43164L10.6059 11.3967C10.6343 11.8155 11.2431 11.7409 11.1781 11.3272L10.8903 8.79918C10.927 8.4998 11.194 8.20075 11.4324 8.13757C11.7141 8.06296 11.7409 8.20075 11.7409 8.37758C11.7409 8.70997 11.7077 9.99637 11.7776 11.5056C11.8459 13.0139 12.0144 14.755 12.4389 16.0795C12.6867 16.85 12.6535 18.3281 12.5659 19.3783C12.5106 20.0231 12.3147 20.8269 12.8525 21.6603C13.415 22.533 14.2845 23.2626 15.2767 23.9271C13.8285 25.2931 12.3406 26.543 10.6096 27.3037C9.87341 25.7954 9.19953 25.0087 7.78462 23.8658C6.34011 22.6972 5.22368 21.7032 4.83425 20.1904C3.69768 15.7855 4.262 10.9786 4.53057 6.40353C4.56872 5.77145 4.85989 5.41937 5.01889 5.34667C5.09825 5.31079 5.11747 5.31873 5.14921 5.3454C5.23955 5.47588 5.25085 5.55715 5.25878 5.69874L5.61312 11.7129C5.6354 12.113 6.21253 12.0764 6.19025 11.6764L5.83592 5.66097C5.83439 5.61779 5.82645 5.57969 5.82157 5.54001L5.74832 4.2171C5.70071 3.36596 5.76755 2.75704 5.87895 2.36211C5.99004 1.96495 6.146 1.7932 6.23329 1.74716C6.31905 1.7005 6.37154 1.69732 6.43502 1.78812C6.57328 1.99003 6.57938 2.1421 6.60349 2.3456L7.63995 11.5736C7.67017 11.9904 8.27721 11.9161 8.2122 11.5025L7.17574 2.2748C7.17727 1.43287 7.4843 0.958246 7.71931 0.841098C7.97201 0.713474 8.04679 0.874115 8.06907 1.06396ZM6.35231 0.601407C6.49851 0.587755 6.721 0.672203 6.91358 0.888719C6.84857 1.0065 6.78936 1.13508 6.74358 1.27889C6.54489 1.13667 6.27754 1.09063 6.03765 1.18619L6.07428 0.913482C6.10571 0.670933 6.19483 0.614423 6.35231 0.601407ZM6.44754 0.00106628C6.3984 -0.000521085 6.35079 -0.000521083 6.30318 0.00233617C5.91527 0.0369407 5.56368 0.364572 5.50203 0.830622L5.4419 1.30683C5.1953 1.20429 4.92825 1.20937 4.71064 1.33001C4.3911 1.50525 4.186 1.86082 4.12557 2.29544L3.77764 4.84379C3.57591 4.91649 3.40561 5.03554 3.27986 5.19079C2.98901 5.55144 2.89531 6.02098 2.85228 6.44258C2.49184 10.1037 1.79049 17.1985 1.76821 17.4236L0.367948 18.0586C0.289816 18.0932 0.229692 18.1627 0.205581 18.2468C-0.239095 19.8142 0.0404679 21.3158 1.0165 22.6419C1.09097 22.7426 1.21824 22.7842 1.33421 22.7445L3.66136 21.9673C4.04744 21.8381 4.46862 21.7921 4.90566 21.787C5.51759 22.7543 6.42556 23.5267 7.42998 24.3385C8.89585 25.5224 9.45193 26.1837 10.2149 27.8205C10.2915 28.0025 10.5125 28.0571 10.6617 27.9332C12.6675 27.0964 14.3241 25.6678 15.9072 24.1582C16.0488 24.0226 16.0247 23.7826 15.8596 23.6804C14.7548 22.9975 13.9014 22.207 13.3322 21.3244C12.9221 20.6895 13.0795 20.1485 13.1403 19.4294C13.2306 18.3513 13.3023 16.8731 12.9877 15.8912C12.5967 14.6724 12.42 12.9612 12.3516 11.478C12.2833 9.99478 12.3184 8.74997 12.3184 8.3779C12.3184 8.04868 12.1899 7.75787 11.964 7.61564C11.7382 7.47342 11.476 7.48834 11.2486 7.56898C11.0835 7.62707 10.9242 7.72136 10.7832 7.84549L10.1609 2.36243C10.1182 1.97543 10.0007 1.68431 9.76995 1.52049C9.53799 1.35699 9.24531 1.39191 9.03258 1.51065C8.92271 1.5716 8.81925 1.65288 8.72586 1.74843L8.64162 0.994438C8.60347 0.669028 8.45087 0.394097 8.2061 0.265521C7.96286 0.138214 7.67169 0.177898 7.43333 0.319809C7.3842 0.349969 7.33475 0.38616 7.28897 0.424257C7.04207 0.168057 6.74511 0.0194797 6.44754 0.00106628Z" fill="var(--fill-0, #396D54)"/>
</g>
</svg>
